<?xml version="1.0" encoding="utf-8"?>
<!-- Generator: Adobe Illustrator 16.0.0, SVG Export Plug-In . SVG Version: 6.00 Build 0)  -->
<!DOCTYPE svg PUBLIC "-//W3C//DTD SVG 1.1//EN" "http://www.w3.org/Graphics/SVG/1.1/DTD/svg11.dtd">
<svg version="1.1" id="Layer_1" xmlns="http://www.w3.org/2000/svg" xmlns:xlink="http://www.w3.org/1999/xlink" x="0px" y="0px"
	 width="267.528px" height="139.395px" viewBox="0 0 267.528 139.395" enable-background="new 0 0 267.528 139.395"
	 xml:space="preserve">
<g>
	<g>
		<rect y="46.559" fill="none" width="367.741" height="191"/>
		<path fill="#FFFFFF" d="M8.966,113.933c1.992,7.88,7.571,12.319,14.545,12.319c8.966,0,14.346-6.104,14.346-16.76
			c0-9.767-5.181-13.43-13.549-18.313C13.051,84.63,6.476,79.524,6.476,68.426c0-11.211,7.472-19.091,18.431-19.091
			c7.173,0,12.453,3.44,15.741,10.1l-4.981,3.33c-1.992-4.551-5.978-6.992-11.158-6.992c-7.074,0-11.457,4.994-11.457,12.764
			c0,9.656,6.476,11.876,15.741,17.537c10.46,6.326,15.243,11.432,15.243,23.419c0,14.207-7.97,23.197-20.822,23.197
			c-9.365,0-16.04-5.216-19.825-15.428L8.966,113.933z"/>
		<path fill="#FFFFFF" d="M75.712,86.628c-10.859,0-17.534,8.436-17.534,20.978c0,10.877,7.074,19.424,17.534,19.424
			c4.782,0,9.664-1.887,14.146-5.438l0.1,7.325c-4.383,2.664-9.564,3.996-15.342,3.996c-13.25,0-22.515-10.878-22.515-25.75
			c0-15.539,9.664-26.417,23.711-26.417c5.18,0,9.962,1.222,13.449,3.219l-0.1,7.326C85.077,88.182,80.494,86.628,75.712,86.628z"/>
		<path fill="#FFFFFF" d="M99.818,106.718c0.199,12.542,6.177,19.979,14.745,19.979c6.476,0,11.058-3.885,14.346-11.543l5.479,3.329
			c-4.383,9.768-10.56,14.207-19.825,14.207c-12.652,0-21.22-10.544-21.22-25.639c0-15.983,8.767-26.306,21.021-26.306
			c11.656,0,19.726,9.323,19.726,24.308c0,0.555,0,1.11,0,1.665H99.818z M113.567,87.183c-6.974,0-12.652,5.439-13.35,13.874h26.799
			C126.518,92.178,121.537,87.183,113.567,87.183z"/>
		<path fill="#FFFFFF" d="M142.555,82.521h5.679v7.437c3.587-6.216,8.668-9.213,15.243-9.213c9.563,0,15.541,6.104,15.541,17.204
			v32.632h-6.077v-29.635c0-9.546-3.388-14.207-11.059-14.207c-9.464,0-13.35,6.326-13.35,18.758v25.084h-5.978V82.521z"/>
		<path fill="#FFFFFF" d="M193.262,106.718c0.199,12.542,6.177,19.979,14.744,19.979c6.476,0,11.059-3.885,14.346-11.543
			l5.479,3.329c-4.384,9.768-10.561,14.207-19.825,14.207c-12.652,0-21.22-10.544-21.22-25.639c0-15.983,8.767-26.306,21.021-26.306
			c11.656,0,19.726,9.323,19.726,24.308c0,0.555,0,1.11,0,1.665H193.262z M207.01,87.183c-6.974,0-12.652,5.439-13.35,13.874h26.799
			C219.961,92.178,214.979,87.183,207.01,87.183z"/>
		<path fill="#FFFFFF" d="M236.795,118.372c1.993,5.438,5.479,8.103,10.66,8.103s8.269-3.219,8.269-7.881
			c0-6.659-5.279-7.547-12.154-10.767c-6.974-3.219-10.36-7.104-10.36-13.208c0-8.103,5.579-13.984,13.947-13.984
			c6.974,0,12.055,3.44,14.346,9.767l-5.479,3.441c-1.395-4.551-4.682-6.993-9.265-6.993c-4.185,0-7.173,3.108-7.173,7.104
			c0,4.773,3.486,6.66,10.261,9.213c7.771,2.886,12.055,5.993,12.055,14.984c0,8.546-5.778,14.539-15.641,14.539
			c-7.472,0-12.951-4.106-15.144-10.655L236.795,118.372z"/>
	</g>
	<g>
		<path fill="#FFFFFF" d="M28.557,7.347h26.398v5.604c-4.239,0.097-5.877,1.063-5.877,3.188c0,1.256,0.674,3.575,1.252,5.411
			l10.983,35.846h0.192L71.43,27.25l-1.349-4.541c-2.409-8.116-6.358-9.372-9.827-9.758V7.347h27.169v5.604
			c-4.335,0.097-6.455,1.159-6.455,3.285c0,0.87,0.578,2.705,1.349,5.217l11.272,35.266h0.193l10.02-34.299
			c0.674-2.222,0.867-3.672,0.867-4.928c0-3.092-2.409-4.155-6.937-4.541V7.347h22.737v5.604
			c-5.877,1.256-7.418,3.575-10.116,11.884l-15.8,48.889h-7.9L74.706,35.946h-0.193L62.47,73.724h-7.9L37.132,20.68
			c-2.023-6.087-4.046-7.15-8.575-7.729V7.347z"/>
		<path fill="#FFFFFF" d="M138.195,24.835c13.198,0,25.724,8.502,25.724,24.058c0,13.72-9.635,25.218-25.724,25.218
			c-16.09,0-25.724-11.498-25.724-25.218C112.471,33.337,124.996,24.835,138.195,24.835z M138.195,67.927
			c9.634,0,12.813-6.859,12.813-18.744s-3.18-18.744-12.813-18.744c-9.635,0-12.814,6.859-12.814,18.744
			S128.561,67.927,138.195,67.927z"/>
		<path fill="#FFFFFF" d="M174.613,39.714c0-3.672-0.771-4.734-7.322-5.121v-5.604c4.624-0.29,10.405-1.546,14.259-4.154h4.239
			v6.473c3.565-3.575,8.286-6.473,13.488-6.473c4.143,0,7.9,1.449,7.9,6.763c0,3.092-1.831,5.604-5.011,5.604
			c-4.721,0-4.816-3.865-9.248-3.865c-2.602,0-5.877,1.643-6.552,3.865v23.961c0,3.865,1.06,6.28,7.322,6.377v5.604h-26.398V67.54
			c6.263-0.097,7.322-2.512,7.322-6.377V39.714z"/>
		<path fill="#FFFFFF" d="M242.823,69.569c-4.721,3.381-9.537,4.541-13.777,4.541c-14.836,0-21.484-11.885-21.484-24.734
			c0-12.174,6.359-24.541,21.484-24.541c3.662,0,9.057,0.966,13.199,4.251v-7.923c0-4.348-1.348-5.7-8.574-5.894V9.666
			c6.262-0.29,12.525-1.546,15.512-3.188h4.816v54.686c0,3.865,1.061,6.28,7.322,6.377v5.604h-18.498V69.569z M242.245,36.14
			c-1.156-2.126-5.78-4.542-9.441-4.542c-10.213,0-12.91,8.792-12.91,18.165c0,6.859,2.408,17.584,11.369,17.584
			c4.143,0,9.346-1.932,10.982-4.154V36.14z"/>
	</g>
</g>
<g>
</g>
<g>
</g>
<g>
</g>
<g>
</g>
<g>
</g>
<g>
</g>
</svg>
